# xmcd
#
# Track frame offsets:
#	150
#	17036
#	44642
#	80243
#	102479
#	130800
#	151770
#	179596
#	205144
#	229138
#
# Disc length: 3380 seconds
#
# Revision: 3
# Processed by: cddbd v1.5.2PL0 Copyright (c) Steve Scherf et al.
# Submitted via: EasyCDDAExtractor 15.3.0.1
#
DISCID=870d320a
DTITLE=Britney Spears - B In The Mix - The Remixes Vol. 2
DYEAR=2011
DGENRE=Pop
TTITLE0=Criminal (Radio Mix)
TTITLE1=Gimme More (Kaskade Club Mix)
TTITLE2=Piece Of Me (Tiesto Club Mix)
TTITLE3=Radar (Tonal Club Remix)
TTITLE4=Womanizer (Benny Benassi Extended)
TTITLE5=Circus (Linus Loves Remix)
TTITLE6=If U Seek Amy (U-Tern Remix)
TTITLE7=3 (Manhattan Clique Club Remix)
TTITLE8=Till The World Ends (Alex Suarez Club Remix)
TTITLE9=I Wanna Go (Gareth Emery Remix)
EXTD=
EXTT0=
EXTT1=
EXTT2=
EXTT3=
EXTT4=
EXTT5=
EXTT6=
EXTT7=
EXTT8=
EXTT9=
PLAYORDER=
